<svg version="1.1" viewBox="0 0 24 24" xmlns="http://www.w3.org/2000/svg">
 <g>
  <path d="m12 19.5h-4.9395l-.060547.5v1h5v-1.5z" fill="#00bcd4"/>
  <path d="m12 19.5v1.5h5v-1l-.060547-.5h-4.9395z" fill="#f44336"/>
  <path d="m12 16.5h-2.9102l-.50977.43945c-.38.37-.66039.72055-.90039 1.0605h4.3203v-1.5z" fill="#00bcd4"/>
  <path d="m12 16.5v1.5h4.3203c-.24-.34-.52039-.69055-.90039-1.0605l-.49023-.43945h-2.9297z" fill="#f44336"/>
  <path d="m12 6h-4.3203c.24.34.52039.69055.90039 1.0605l.49023.43945h2.9297v-1.5z" fill="#f44336"/>
  <path d="m12 6v1.5h2.9102l.50977-.43945c.38-.37.66039-.72055.90039-1.0605h-4.3203z" fill="#00bcd4"/>
  <path d="m12 3h-5v1l.060547.5h4.9395v-1.5z" fill="#f44336"/>
  <path d="m12 3v1.5h4.9395l.060547-.5v-1h-5z" fill="#00bcd4"/>
  <path d="m14.74 12.61c.99.67 1.95 1.39 2.76 2.18 1.43 1.39 2.5 3.11 2.5 5.21v2h-2v-2c0-1.44-.68-2.61-1.88-3.78-.86-.83-2.01-1.63-3.21-2.42l1.83-1.19" fill="#f44336"/>
  <path d="m18 2h2v2c0 2.1-1.07 3.82-2.5 5.21-1.41 1.38-3.21 2.52-4.96 3.63-1.75 1.12-3.45 2.21-4.66 3.38-1.2 1.17-1.88 2.34-1.88 3.78v2h-2v-2c0-2.1 1.07-3.82 2.5-5.21 1.41-1.38 3.21-2.52 4.96-3.63 1.75-1.12 3.45-2.21 4.66-3.38 1.2-1.17 1.88-2.34 1.88-3.78v-2" fill="#00bcd4"/>
  <path d="m4 2h2v2c0 1.44.68 2.61 1.88 3.78.86.83 2.01 1.63 3.21 2.42l-1.83 1.19c-.99-.67-1.95-1.39-2.76-2.18-1.43-1.39-2.5-3.11-2.5-5.21v-2" fill="#f44336"/>
 </g>
</svg>
